<?xml version="1.0" encoding="UTF-8" standalone="no"?>
<svg
   xmlns:osb="http://www.openswatchbook.org/uri/2009/osb"
   xmlns:dc="http://purl.org/dc/elements/1.1/"
   xmlns:cc="http://creativecommons.org/ns#"
   xmlns:rdf="http://www.w3.org/1999/02/22-rdf-syntax-ns#"
   xmlns:svg="http://www.w3.org/2000/svg"
   xmlns="http://www.w3.org/2000/svg"
   xmlns:sodipodi="http://sodipodi.sourceforge.net/DTD/sodipodi-0.dtd"
   xmlns:inkscape="http://www.inkscape.org/namespaces/inkscape"
   width="235.48361"
   height="42.499901"
   viewBox="0 0 62.30504 11.244766"
   version="1.1"
   id="svg8"
   inkscape:version="1.0.1 (c497b03c, 2020-09-10)"
   sodipodi:docname="rambling.svg">
  <defs
     id="defs2">
    <linearGradient
       id="linearGradient2899"
       osb:paint="solid">
      <stop
         style="stop-color:#ffffff;stop-opacity:1;"
         offset="0"
         id="stop2897" />
    </linearGradient>
  </defs>
  <sodipodi:namedview
     id="base"
     pagecolor="#000000"
     bordercolor="#666666"
     borderopacity="1.0"
     inkscape:pageopacity="0"
     inkscape:pageshadow="2"
     inkscape:zoom="5.6"
     inkscape:cx="163.48128"
     inkscape:cy="41.41532"
     inkscape:document-units="px"
     inkscape:current-layer="layer1"
     inkscape:document-rotation="0"
     showgrid="false"
     inkscape:window-width="2560"
     inkscape:window-height="1395"
     inkscape:window-x="0"
     inkscape:window-y="23"
     inkscape:window-maximized="0"
     units="px"
     fit-margin-top="0"
     fit-margin-left="0"
     fit-margin-right="0"
     fit-margin-bottom="0"
     inkscape:snap-text-baseline="true" />
  <metadata
     id="metadata5">
    <rdf:RDF>
      <cc:Work
         rdf:about="">
        <dc:format>image/svg+xml</dc:format>
        <dc:type
           rdf:resource="http://purl.org/dc/dcmitype/StillImage" />
        <dc:title></dc:title>
      </cc:Work>
    </rdf:RDF>
  </metadata>
  <g
     inkscape:label="Layer 1"
     inkscape:groupmode="layer"
     id="layer1"
     transform="translate(-0.9825881,-0.95308663)">
    <g
       aria-label="ramblings"
       id="text939"
       style="font-size:10.5833px;line-height:1.25;font-family:Hack;-inkscape-font-specification:Hack;fill:none;stroke:#ffffff;stroke-width:0.264583;stroke-opacity:0.906883">
      <path
         d="m 5.1417979,3.8115498 h 0.8629937 l 0.093017,1.1317103 q 0.2428784,-0.6149476 0.733803,-0.9456757 0.4857569,-0.3255605 1.162716,-0.3255605 0.3513986,0 0.6614562,0.08785 0.1498612,0.041341 0.2997224,0.1136878 0.1498611,0.067179 0.2842194,0.1601965 V 5.0052716 Q 8.9451712,4.7675608 8.6196107,4.6590406 8.2992179,4.5505204 7.9219811,4.5505204 q -0.8836642,0 -1.3539182,0.5581037 -0.470254,0.5529361 -0.470254,1.6122996 v 2.8783681 h -0.956011 z"
         style="fill:none;stroke:#ffffff;stroke-width:0.264583;stroke-opacity:0.906883"
         id="path2903" />
      <path
         d="m 12.598683,9.749153 q -0.899167,0 -1.421097,-0.5012598 Q 10.92954,9.0101823 10.790014,8.6897895 10.650488,8.364229 10.650488,7.9094778 q 0,-0.9560109 0.651121,-1.4624383 0.640786,-0.5012598 1.901687,-0.5012598 h 1.276403 V 5.7959185 q 0,-0.3307281 -0.08785,-0.5891095 Q 14.304,4.9484277 14.128301,4.7882313 13.957769,4.6332025 13.678717,4.5556881 q -0.279052,-0.077514 -0.651121,-0.077514 -0.490924,0 -0.987016,0.1395259 -0.50126,0.1395259 -0.966347,0.4082425 V 4.0750988 q 0.217041,-0.082682 0.48059,-0.1653641 0.263549,-0.082682 0.532265,-0.1395259 0.470254,-0.098185 0.945676,-0.098185 0.366901,0 0.666624,0.056844 0.299722,0.051676 0.558103,0.1601964 0.237711,0.1033525 0.449584,0.263549 0.21704,0.1550288 0.366901,0.3617339 0.108521,0.1498611 0.1757,0.3152252 0.06718,0.165364 0.103352,0.3255605 0.08268,0.3772367 0.08268,1.1420455 v 1.1833865 q 0.01034,0.2997224 0.0155,0.527098 0.0052,0.2273755 0.03101,0.4237454 0.02584,0.2170403 0.05684,0.4082425 0.03617,0.1912022 0.06201,0.2893871 0.03617,0.1601964 0.08268,0.3048899 0.04651,0.139526 0.05684,0.1653641 H 14.784589 Q 14.758751,9.5372803 14.71741,9.4184249 14.681237,9.2944018 14.645063,9.1497083 14.619225,9.0360205 14.593387,8.9223327 14.572717,8.8034773 14.562381,8.7207952 14.41252,8.9791766 14.174809,9.180714 13.942266,9.3822515 13.714891,9.5011069 13.466845,9.6302976 13.187793,9.6871415 12.913908,9.749153 12.598683,9.749153 Z m 0.19637,-0.7958145 q 0.780312,0 1.229895,-0.5477685 0.454751,-0.5581037 0.454751,-1.5037794 V 6.6899179 h -1.204057 q -0.82682,0 -1.250565,0.2893871 -0.222208,0.1498612 -0.325561,0.3720692 -0.09818,0.2170403 -0.09818,0.5064274 0,0.2687166 0.08268,0.470254 0.08268,0.1963698 0.232544,0.3358958 0.149861,0.1343583 0.361733,0.2118727 0.217041,0.077514 0.516763,0.077514 z"
         style="fill:none;stroke:#ffffff;stroke-width:0.264583;stroke-opacity:0.906883"
         id="path2905" />
      <path
         d="m 16.877478,3.8115498 h 0.780312 l 0.08268,0.4960922 q 0.170532,-0.3100576 0.428913,-0.4754217 0.253214,-0.1601964 0.583942,-0.1601964 0.382404,0 0.651121,0.1808669 0.253213,0.1756993 0.403075,0.5477685 0.180866,-0.3772368 0.449583,-0.5529361 0.268717,-0.1756993 0.651121,-0.1756993 0.356566,0 0.604612,0.1395259 0.248046,0.1343583 0.382405,0.3979073 0.284219,0.5374332 0.284219,2.0360449 V 9.5992918 H 21.311302 V 6.286843 q 0,-0.3307281 -0.01034,-0.5787742 -0.0052,-0.248046 -0.02584,-0.428913 -0.0155,-0.1860345 -0.04134,-0.3100576 -0.02584,-0.1291907 -0.06201,-0.2067051 -0.05684,-0.1343583 -0.175699,-0.2118727 -0.118856,-0.082682 -0.335896,-0.082682 -0.19637,0 -0.330728,0.077514 -0.134358,0.072347 -0.211873,0.2377108 -0.08785,0.180867 -0.124023,0.5374332 -0.03617,0.3513987 -0.03617,0.9663462 V 9.5992918 H 19.089222 V 6.286843 q 0,-0.3772367 -0.01033,-0.6356181 -0.01034,-0.2635489 -0.03101,-0.4392482 -0.02067,-0.1756993 -0.05168,-0.2790519 -0.02584,-0.1085201 -0.05684,-0.1756993 -0.06718,-0.1343583 -0.19637,-0.2118727 -0.124023,-0.077514 -0.32556,-0.077514 -0.21704,0 -0.341063,0.08785 -0.118856,0.082682 -0.180867,0.2222079 -0.03617,0.077514 -0.06718,0.1963698 -0.02584,0.1188555 -0.04651,0.2997224 -0.02067,0.1756993 -0.03101,0.4237454 -0.01033,0.2480461 -0.01033,0.5891094 v 3.3124488 h -0.862994 z"
         style="fill:none;stroke:#ffffff;stroke-width:0.264583;stroke-opacity:0.906883"
         id="path2907" />
      <path
         d="m 26.174039,9.749153 q -0.263549,0 -0.48059,-0.056844 -0.21704,-0.051676 -0.428913,-0.1705317 -0.397907,-0.2273756 -0.635618,-0.651121 l -0.09302,0.7286354 H 23.678075 V 1.5584645 h 0.950843 v 2.9920559 q 0.222208,-0.4237454 0.630451,-0.6511209 0.397907,-0.2273756 0.93534,-0.2273756 0.496092,0 0.909502,0.1963698 0.418578,0.1963698 0.723468,0.5994447 0.299723,0.4030749 0.449584,0.9663462 0.149861,0.5632713 0.149861,1.2660686 0,1.4159297 -0.599445,2.2324147 -0.294555,0.4030749 -0.707965,0.60978 -0.41341,0.2067051 -0.945675,0.2067051 z M 26.03968,8.9430032 q 0.687295,0 1.033526,-0.5632713 0.351398,-0.568439 0.351398,-1.6691435 0,-1.1007045 -0.351398,-1.6691434 -0.346231,-0.5632713 -1.038693,-0.5632713 -0.692462,0 -1.049029,0.5632713 -0.356566,0.5684389 -0.356566,1.6691434 0,1.1007045 0.356566,1.6639759 0.356567,0.5684389 1.054196,0.5684389 z"
         style="fill:none;stroke:#ffffff;stroke-width:0.264583;stroke-opacity:0.906883"
         id="path2909" />
      <path
         d="m 33.289861,9.6406328 q -0.41341,0 -0.744139,-0.1291907 Q 32.220162,9.3822515 31.972116,9.0928644 31.501862,8.5450959 31.501862,7.5425763 V 2.3026028 h -1.52445 V 1.5584645 h 2.475293 v 5.9841118 q 0,0.6459534 0.237711,0.9663463 0.124023,0.1705316 0.294555,0.248046 0.175699,0.077514 0.397907,0.077514 h 1.11104 v 0.8061498 h -1.204057 z"
         style="fill:none;stroke:#ffffff;stroke-width:0.264583;stroke-opacity:0.906883"
         id="path2911" />
      <path
         d="m 38.116424,2.7625216 q -0.155029,0 -0.155029,-0.1550288 V 1.7134933 q 0,-0.1550288 0.155029,-0.1550288 h 0.744138 q 0.155029,0 0.155029,0.1550288 v 0.8939995 q 0,0.1550288 -0.155029,0.1550288 z m 1.736323,6.8781112 q -0.413411,0 -0.744139,-0.1291907 Q 38.783048,9.3822515 38.535002,9.0928644 38.064748,8.5450959 38.064748,7.5425763 V 4.5556881 H 36.798679 V 3.8115498 h 2.216912 v 3.7310265 q 0,0.6459534 0.237711,0.9663463 0.124023,0.1705316 0.294555,0.248046 0.175699,0.077514 0.397907,0.077514 h 1.11104 v 0.8061498 z"
         style="fill:none;stroke:#ffffff;stroke-width:0.264583;stroke-opacity:0.906883"
         id="path2913" />
      <path
         d="m 42.787959,3.8115498 h 0.857826 l 0.09302,0.8681613 q 0.258381,-0.5012598 0.687294,-0.7544735 0.428913,-0.2532137 1.02319,-0.2532137 0.465087,0 0.790647,0.1498612 0.325561,0.1498611 0.537433,0.428913 0.434081,0.5839418 0.434081,1.7621607 v 3.586333 h -0.956011 v -3.586333 q 0,-0.7803116 -0.273884,-1.1472131 -0.273884,-0.3669015 -0.862994,-0.3669015 -0.341063,0 -0.594277,0.1188554 -0.248046,0.1188554 -0.423745,0.3513986 -0.361734,0.470254 -0.361734,1.3590859 v 3.2711077 h -0.950843 z"
         style="fill:none;stroke:#ffffff;stroke-width:0.264583;stroke-opacity:0.906883"
         id="path2915" />
      <path
         d="m 51.252531,11.873048 q -0.201537,0 -0.403075,-0.02067 -0.201537,-0.0155 -0.418578,-0.05168 -0.211872,-0.03617 -0.423745,-0.08785 -0.206705,-0.05168 -0.434081,-0.124023 V 10.64832 q 0.253214,0.118855 0.485757,0.206705 0.237711,0.08785 0.434081,0.144694 0.403075,0.113687 0.780312,0.113687 0.382404,0 0.651121,-0.103352 0.268716,-0.103353 0.449583,-0.320393 0.351399,-0.41341 0.351399,-1.3229124 V 8.6794542 q -0.222208,0.4805893 -0.620115,0.7234678 -0.39274,0.2377108 -0.950844,0.2377108 -1.018022,0 -1.622635,-0.8113174 -0.604612,-0.8113174 -0.604612,-2.1704032 0,-1.3590859 0.604612,-2.1755709 0.30489,-0.4082425 0.702798,-0.60978 0.403075,-0.2015374 0.925005,-0.2015374 0.268716,0 0.50126,0.056844 0.23771,0.051676 0.43408,0.165364 0.39274,0.2273756 0.630451,0.6872944 l 0.09302,-0.7493059 h 0.857826 v 5.3950024 q 0,1.2970743 -0.614948,1.9740333 -0.609779,0.671792 -1.808669,0.671792 z m 0.10852,-3.0230621 q 0.671792,0 1.018023,-0.5632713 0.346231,-0.5632713 0.346231,-1.6278024 0,-1.0748664 -0.346231,-1.6278025 Q 52.198207,4.736555 51.934658,4.6073643 51.676276,4.4781737 51.355884,4.4781737 q -0.692462,0 -1.059364,0.552936 -0.366901,0.5529361 -0.366901,1.6329701 0,1.0593635 0.372069,1.6226348 0.372069,0.5632713 1.059363,0.5632713 z"
         style="fill:none;stroke:#ffffff;stroke-width:0.264583;stroke-opacity:0.906883"
         id="path2917" />
      <path
         d="m 57.562203,9.749153 q -0.227375,0 -0.470254,-0.025838 Q 56.854238,9.7026443 56.63203,9.6613033 56.430493,9.6199623 56.156609,9.5476155 55.887892,9.4752688 55.614008,9.3874191 V 8.40557 q 0.330728,0.1653641 0.563271,0.2583814 0.232544,0.08785 0.454751,0.1498611 0.237711,0.067179 0.459919,0.1033526 0.222208,0.036173 0.459919,0.036173 0.625283,0 0.976682,-0.2583814 0.180866,-0.1343583 0.263548,-0.3152252 0.08268,-0.180867 0.08268,-0.3669015 0,-0.3617339 -0.30489,-0.5839418 -0.30489,-0.2273756 -0.961179,-0.3617339 l -0.04134,-0.010335 -0.356566,-0.072347 Q 56.823233,6.9069583 56.518343,6.7777676 56.21862,6.6485769 56.011915,6.4418718 55.634679,6.0646351 55.634679,5.4031789 q 0,-0.4185778 0.139525,-0.7389707 0.144694,-0.3203928 0.423746,-0.5426008 0.294555,-0.2377108 0.702797,-0.3410633 0.408243,-0.1085202 0.91467,-0.1085202 0.222208,0 0.444416,0.020671 0.222208,0.020671 0.439248,0.062011 0.19637,0.041341 0.408243,0.1085202 0.21704,0.062012 0.43408,0.1498612 v 0.9301728 q -0.41341,-0.2377109 -0.821652,-0.3565663 -0.206705,-0.056844 -0.418578,-0.08785 -0.206705,-0.031006 -0.444416,-0.031006 -0.299722,0 -0.542601,0.051676 -0.237711,0.051676 -0.397907,0.1550288 -0.320393,0.2118727 -0.320393,0.6459533 0,0.180867 0.05684,0.3307281 0.06201,0.1498612 0.180867,0.2428785 0.118855,0.093017 0.39274,0.1860346 0.279051,0.08785 0.790646,0.1860345 l 0.382405,0.072347 q 0.372069,0.072347 0.635618,0.2067051 0.263549,0.1343583 0.439248,0.3307281 0.361734,0.3979073 0.361734,1.0541959 0,0.4444159 -0.160196,0.775144 -0.155029,0.3255605 -0.449584,0.5581037 -0.315225,0.248046 -0.73897,0.3669015 -0.418578,0.1188554 -0.925006,0.1188554 z"
         style="fill:none;stroke:#ffffff;stroke-width:0.264583;stroke-opacity:0.906883"
         id="path2919" />
    </g>
  </g>
</svg>
